<svg width="24" height="24" viewBox="0 0 24 24" fill="none" xmlns="http://www.w3.org/2000/svg">
  <path d="M21.2122 19.0695C21.354 16.8098 21.4286 14.4681 21.4286 12.0686C21.4286 11.4442 21.4236 10.8238 21.4135 10.2077C21.3919 8.8709 20.9669 7.56445 20.1466 6.50882C18.905 4.91125 17.778 3.78254 16.075 2.46822C15.5311 2.04839 14.8636 1.82061 14.1766 1.8056C13.4878 1.79054 12.7684 1.7829 12 1.7829C9.67381 1.7829 7.79736 1.85296 5.8555 1.98647C4.20354 2.10006 2.89155 3.41514 2.78782 5.06774C2.646 7.32746 2.57144 9.66913 2.57144 12.0686C2.57144 14.4681 2.646 16.8098 2.78782 19.0695C2.89155 20.7221 4.20354 22.0371 5.8555 22.1508C7.79736 22.2843 9.67381 22.3543 12 22.3543C14.3262 22.3543 16.2027 22.2843 18.1445 22.1508C19.7964 22.0371 21.1085 20.7221 21.2122 19.0695Z" stroke="#18181B" stroke-linecap="round" stroke-linejoin="round"/>
  <path d="M7.46613 11.4222L10.4031 11.4222" stroke="#18181B" stroke-linecap="round" stroke-linejoin="round"/>
  <path d="M7.3109 15.5049C7.03476 15.5049 6.81017 15.7287 6.80925 16.0049C6.80833 16.281 7.03144 16.5049 7.30757 16.5049L7.30923 16.0049L7.3109 15.5049ZM14.9466 16.5049C15.2227 16.5049 15.4473 16.281 15.4482 16.0049C15.4491 15.7287 15.226 15.5049 14.9499 15.5049L14.9482 16.0049L14.9466 16.5049ZM7.30923 16.0049L7.30757 16.5049L14.9466 16.5049L14.9482 16.0049L14.9499 15.5049L7.3109 15.5049L7.30923 16.0049Z" fill="#18181B"/>
  <path d="M13.8264 7.43198V1.93701H14.5388C15.6216 1.93702 16.3009 2.66279 16.3009 2.66279C16.3009 2.66279 17.5187 3.57326 18.618 4.72691C19.9812 6.15761 20.6392 7.21081 20.9805 7.9421C21.6717 9.42345 21.4224 14.123 21.4224 14.123C21.4224 9.84674 17.9199 9.20481 15.5392 9.13605C14.5928 9.10871 13.8264 8.37875 13.8264 7.43198Z" fill="#E1E1E2" stroke="#18181B" stroke-linecap="round" stroke-linejoin="round"/>
</svg>
